<?xml version="1.0" encoding="UTF-8"?>
<svg id="_레이어_1" data-name="레이어_1" xmlns="http://www.w3.org/2000/svg" version="1.1" viewBox="0 0 212 212">
  <!-- Generator: Adobe Illustrator 29.4.0, SVG Export Plug-In . SVG Version: 2.1.0 Build 152)  -->
  <defs>
    <style>
      .st0 {
        fill: #231815;
      }

      .st1 {
        fill: #fff;
      }
    </style>
  </defs>
  <circle class="st0" cx="106" cy="106" r="106"/>
  <g>
    <path class="st1" d="M81.6,52.5c0,2-1.6,3.6-3.6,3.6s-3.6-1.6-3.6-3.6,1.6-3.6,3.6-3.6,3.6,1.6,3.6,3.6Z"/>
    <path class="st1" d="M137.6,52.5c0,2-1.6,3.6-3.6,3.6s-3.6-1.6-3.6-3.6,1.6-3.6,3.6-3.6,3.6,1.6,3.6,3.6Z"/>
  </g>
  <g>
    <path class="st1" d="M92.1,86.2c0,.7,0,1.4,0,2.2s0,1.6,0,2.3v7.2c.4,5.4,10.9,9.2,17.8,6.2,1.8-.8,3.7-2.5,5-4.1l-.6-2.5c-1.1.7-2.3,1.2-3.6,1.6-.6.2-1.1.3-1.7.4-2.6,0-3.7-.6-5.3-1.9-1-.8-1.2-2.6-1.4-4.1-.2-1.5-.3-3.3-.3-5.5,0-3.9.1-6.7.4-8.6.3-1.8.6-3,1.1-3.5.4-.5.9-.8,1.4-.9.6-.2,1.1-.3,1.7-.3,1.3,0,2.6.3,3.7.9,1.2.6,2.1,1.2,3,1.9l1.1-6.7c-1.3-.5-2.6-1-3.9-1.2s-.8-.1-2.1-.3c-2.8-.3-8-.7-12.1,2.5-4.1,3.2-4.2,8.7-4.2,14.3Z"/>
    <path class="st1" d="M109.5,69.6c0,1.5.6,2.6.6,4.1,0,0,2.4,2.1,2.4,5.3v7.6c0,.7,0,1.4,0,2.2s0,1.6,0,2.3v4.5c0,5.7,5.8,9.5,12,9.7,0,0-2.1-7.9-2.1-16.9s.1-6.7.4-8.6c.3-1.8.6-3,1.1-3.5.4-.5.9-.8,1.4-.9.6-.2,1.1-.3,1.7-.3,1.3,0,2.6.3,3.7.9,1.1.6,2.1,1.2,3,1.9l1.1-6.9c-.7-.3-1.9-.6-3.4-.9-6.5-1.1-9.9,2.2-15.1,1.2-1.5-.3-4.6-1.9-6.8-1.9Z"/>
    <path class="st1" d="M166.8,90.2c0-3.9.1-6.7.4-8.6.3-1.8.6-3,1.1-3.5.4-.4.9-.8,1.4-.9.6-.2,1.1-.2,1.7-.3,2.2-.1,4.1,0,6.8.7l1.1-4.8c-1-.3-2.1-.7-3.4-.9-4.3-.7-9.4-.4-9.4-.4v-6.1c.1,0-6.1,0-6.1,0-.6,4.7-2.2,7.2-7.2,7.5v4.4s3.7,0,3.7,0v10.9c0,.7,0,1.5,0,2.2s0,1.6,0,2.3v4.5c0,8.3,10.3,10.9,15.3,11,0,0,0-1.6-.2-3.9-1.9-1-5.4-2.6-5.3-14.3Z"/>
    <g>
      <path class="st1" d="M67.7,95.1c0,2.6-.5,4.7-1.6,6.4-1.1,1.7-2.3,3.1-3.8,4.3-.7.6-1.5,1.3-2.4,1.9-.8.6-1.8,1.2-2.8,1.7-1,.5-2.2.9-3.6,1.2-1.3.3-2.9.4-4.7.4-3.2,0-6.2-.3-8.8-1-2.7-.7-5.1-1.7-7.5-3.2l3.2-8.5c1,.6,2,1.3,3.2,2,1.1.7,2.3,1.4,3.6,2,1.3.6,2.6,1.1,4,1.6,1.4.4,2.8.6,4.2.6s1.9,0,2.7-.2c.8-.1,1.5-.4,2-.8.4-.3.8-1,1-1.9.2-.9.3-2,.3-3.3s-.6-2.7-1.7-3.5c-1.1-.9-2.5-1.6-4.2-2.3-1.7-.6-3.5-1.3-5.4-1.9-1.9-.6-3.7-1.5-5.4-2.6-1.7-1.1-3.1-2.4-4.2-4.1-1.1-1.7-1.7-3.9-1.7-6.6s.5-3.6,1.6-5.3c1.1-1.8,2.3-3.2,3.6-4.3,1.6-1.4,3.3-2.5,5.3-3.2,1.9-.7,4.2-1,6.7-1s4.4.1,6.8.4c2.4.3,4.6.5,6.7.8l-1.4,9.1c-1-.3-2.2-.7-3.4-1-1.2-.3-2.4-.7-3.6-1-1.2-.3-2.3-.5-3.5-.7-1.1-.2-2.1-.3-3-.3s-2,0-2.6.2c-.6.1-1.1.3-1.4.5-.3.2-.5.6-.7,1.3-.2.6-.3,1.3-.3,2,0,1.4.6,2.5,1.7,3.3,1.1.8,2.5,1.5,4.2,2.1,1.7.6,3.5,1.3,5.5,1.9,2,.7,3.8,1.5,5.5,2.6,1.7,1,3.1,2.4,4.2,4.1,1.1,1.7,1.7,3.8,1.7,6.5Z"/>
      <path class="st1" d="M40.2,151v-45h10v39.6h18.7l-.5,5.4h-28.2Z"/>
      <path class="st1" d="M81.4,69.3c1.6,0,3.2.2,4.8.7,1.6.5,3,1.3,4.3,2.4,1.3,1.1,2.4,2.6,3.4,4.4,1,1.9,1.7,4.2,2.2,6.9v.5c-.3.4-.7.8-1.2,1.1-.5.3-1.2.6-2,.9-.8.2-1.8.5-3,.7-1.2.2-2.6.4-4.3.5l-10.9.8v1.5c0,2.7.7,4.9,2.1,6.7,1.4,1.8,3.6,2.6,6.4,2.6s2.4-.1,3.7-.4c1.3-.2,2.5-.5,3.6-.9,1.1-.3,2.2-.7,3.1-1,1-.4,1.7-.7,2.2-.9l.8,2.5c-1,.8-2.2,1.6-3.5,2.4-1.3.8-2.7,1.6-4.2,2.3-1.5.7-3.1,1.2-4.8,1.7-1.7.4-3.4.6-5.1.6s-4-.3-5.8-.9c-1.8-.6-3.3-1.6-4.6-3-1.3-1.4-2.3-3.1-3.1-5.3-.7-2.2-1.1-4.8-1.1-7.9s.4-6.4,1.3-8.9,2.1-4.4,3.6-5.8c1.5-1.5,3.3-2.6,5.4-3.2,2.1-.7,4.3-1,6.7-1ZM76.8,75.1c-.3.2-.5.6-.8,1.3-.2.6-.5,1.4-.6,2.2-.2.8-.3,1.7-.4,2.6-.1.9-.2,1.8-.2,2.7l10.9-.5c-.1-1-.3-2.1-.5-3.1-.2-1.1-.6-2.1-1-3-.4-.9-1-1.7-1.6-2.2-.6-.6-1.4-.9-2.3-.9s-1.2,0-1.8.2c-.6.1-1.1.4-1.6.8Z"/>
      <path class="st1" d="M145.6,71.2c1.6,0,3.2.2,4.8.7,1.6.5,3,1.3,4.3,2.4,1.3,1.1,2.4,2.6,3.4,4.4,1,1.9,1.7,4.2,2.2,6.9v.5c-.3.4-.7.8-1.2,1.1-.5.3-1.2.6-2,.9-.8.2-1.8.5-3,.7-1.2.2-2.6.4-4.3.5l-10.9.8v1.5c0,2.7.7,4.9,2.1,6.7,1.4,1.8,3.6,2.6,6.4,2.6s2.4-.1,3.7-.4c1.3-.2,2.5-.5,3.6-.9,1.1-.3,2.2-.7,3.1-1,1-.4,1.7-.7,2.2-.9l.8,2.5c-1,.8-2.2,1.6-3.5,2.4-1.3.8-2.7,1.6-4.2,2.3-1.5.7-3.1,1.2-4.8,1.7-1.7.4-3.4.6-5.1.6s-4-.3-5.8-.9c-1.8-.6-3.3-1.6-4.6-3-1.3-1.4-2.3-3.1-3.1-5.3-.7-2.2-1.1-4.8-1.1-7.9s.4-6.4,1.3-8.9c.9-2.4,2.1-4.4,3.6-5.8,1.5-1.5,3.3-2.6,5.4-3.2,2.1-.7,4.3-1,6.7-1ZM140.9,77c-.3.2-.5.6-.8,1.3-.2.6-.5,1.4-.6,2.2-.2.8-.3,1.7-.4,2.6-.1.9-.2,1.8-.2,2.7l10.9-.5c-.1-1-.3-2.1-.5-3.2-.2-1.1-.6-2.1-1-3-.4-.9-1-1.6-1.6-2.3-.6-.6-1.4-.9-2.3-.9s-1.2,0-1.8.2c-.6.1-1.1.4-1.6.8Z"/>
      <path class="st1" d="M75.9,108.5c1.6,0,3.3.2,4.8.7,1.6.5,3,1.3,4.3,2.4,1.3,1.1,2.4,2.6,3.4,4.4,1,1.9,1.7,4.2,2.2,6.9v.5c-.3.4-.7.8-1.2,1.1-.5.3-1.2.6-2,.9-.8.2-1.8.5-3,.7-1.2.2-2.6.4-4.3.5l-10.9.8v1.5c0,2.7.7,4.9,2.1,6.7,1.4,1.8,3.6,2.6,6.4,2.6s2.4-.1,3.7-.4c1.3-.2,2.5-.5,3.6-.9,1.1-.3,2.2-.7,3.1-1,1-.4,1.7-.7,2.2-.9l.8,2.5c-1,.8-2.2,1.6-3.5,2.4-1.3.8-2.7,1.6-4.2,2.3-1.5.7-3.1,1.2-4.8,1.7-1.7.4-3.4.6-5.1.6s-4-.3-5.8-.9c-1.8-.6-3.3-1.6-4.6-3-1.3-1.4-2.3-3.1-3.1-5.3-.7-2.2-1.1-4.8-1.1-7.9s.4-6.4,1.3-8.9c.9-2.4,2.1-4.4,3.6-5.8,1.5-1.5,3.3-2.6,5.4-3.2,2.1-.7,4.3-1,6.7-1ZM71.2,114.3c-.3.2-.5.6-.8,1.3-.2.6-.5,1.4-.6,2.2-.2.8-.3,1.7-.4,2.6-.1.9-.2,1.8-.2,2.7l10.9-.5c-.1-1-.3-2.1-.5-3.1-.2-1.1-.6-2.1-1-3-.4-.9-1-1.6-1.6-2.2-.6-.6-1.4-.9-2.3-.9s-1.2,0-1.8.2c-.6.1-1.1.4-1.6.8Z"/>
      <path class="st1" d="M143.6,109c1.6,0,3.3.2,4.8.7,1.6.5,3,1.3,4.3,2.4,1.3,1.1,2.4,2.6,3.4,4.4,1,1.9,1.7,4.2,2.2,6.9v.5c-.3.4-.7.8-1.2,1.1-.5.3-1.2.6-2,.9-.8.2-1.8.5-3,.7-1.2.2-2.6.4-4.3.5l-10.9.8v1.5c0,2.7.7,4.9,2.1,6.7,1.4,1.8,3.6,2.6,6.4,2.6s2.4-.1,3.7-.4c1.3-.2,2.5-.5,3.6-.9,1.1-.3,2.2-.7,3.1-1,1-.4,1.7-.7,2.2-.9l.8,2.5c-1,.8-2.2,1.6-3.5,2.4-1.3.8-2.7,1.6-4.2,2.3-1.5.7-3.1,1.2-4.8,1.7-1.7.4-3.4.6-5.1.6s-4-.3-5.8-.9c-1.8-.6-3.3-1.6-4.6-3-1.3-1.4-2.3-3.1-3.1-5.3-.7-2.2-1.1-4.8-1.1-7.9s.4-6.4,1.3-8.9c.9-2.4,2.1-4.4,3.6-5.8,1.5-1.5,3.3-2.6,5.4-3.2,2.1-.7,4.3-1,6.7-1ZM138.9,114.9c-.3.2-.5.6-.8,1.3-.2.6-.5,1.4-.6,2.2-.2.8-.3,1.7-.4,2.6-.1.9-.2,1.8-.2,2.7l10.9-.5c-.1-1-.3-2.1-.5-3.1-.2-1.1-.6-2.1-1-3-.4-.9-1-1.6-1.6-2.3-.6-.6-1.4-.9-2.3-.9s-1.2,0-1.8.2c-.6.1-1.1.4-1.6.8Z"/>
    </g>
    <path class="st1" d="M99.1,132.9c0-3.9.1-6.7.4-8.6.3-1.8.6-3,1.1-3.5.4-.4.9-.8,1.4-.9.6-.2,1.1-.2,1.7-.3,2.2-.1,4.1,0,6.8.7l1.1-4.8c-1-.3-2.1-.7-3.4-.9-4.3-.7-9.4-.4-9.4-.4v-6.1c.1,0-6.1,0-6.1,0-.6,4.7-2.2,7.2-7.2,7.5v4.4s3.7,0,3.7,0v1.6c0,.7-.3,9,0,11.4.2,2.4.3,3,.4,4.1s1.4,4.6,3,7.2c2.3,3.6,8.3,6.1,17.5,5.4,0,0,0-.7-.6-3.6-2.7.4-10.1.6-10.4-13.4Z"/>
    <path class="st1" d="M119.1,131.7c.2-3.9.1-6.7.4-8.6.3-1.8.6-3,1.1-3.5.4-.4.9-.8,1.4-.9.6-.2,1.1-.2,1.7-.3,2.2-.1,4.1,0,6.8.7l1.1-4.8c-1-.3-2.1-.7-3.4-.9-4.3-.7-9.4-.4-9.4-.4v-6.1c.1,0-6.1,0-6.1,0-.6,4.7-2.9,7-7.9,7.3l.7,4.6h3.7v10.9c0,.7,0,1.5,0,2.2s0,1.6,0,2.3v4.5c0,9.8,11.4,10.9,16.5,11,0,0,0-1.6-.2-3.9-3.9-1.4-7-4-6.4-14.3Z"/>
    <path class="st1" d="M153.7,112.9c0,1.5.6,2.6.6,4.1,0,0,2.4,2.1,2.4,5.3v7.6c0,.7,0,1.4,0,2.2s0,1.6,0,2.3v5.7c0,5.7,4.6,9.5,10.8,9.7,0,0-1-9.1-1-18s.1-6.7.4-8.6c.3-1.8.6-3,1.1-3.5.4-.5.9-.8,1.4-.9.6-.2,1.1-.3,1.7-.3,1.3,0,2.6.3,3.7.9,1.1.6,2.1,1.2,3,1.9l1.1-6.9c-.7-.3-1.9-.6-3.4-.9-6.5-1.1-9.9,2.2-15.1,1.2-1.5-.3-4.6-1.9-6.8-1.9Z"/>
  </g>
</svg>